# xmcd CD database file
#
# Track frame offsets:
#	150
#	17407
#	33722
#	49532
#	68211
#	82246
#	97454
#	114604
#	132518
#	148947
#	166434
#	177541
#
# Disc length: 2596 seconds
#
# Revision: 0
# Processed by: cddbd v1.5.1PL0 Copyright (c) Steve Scherf et al.
# Submitted via: CDex 1.51
#
DISCID=b80a220c
DTITLE=Gordy Quist - Songs Play Me
DYEAR=2004
DGENRE=Country
TTITLE0=Same Walls
TTITLE1=Broken Heart String
TTITLE2=Songs Play Me
TTITLE3=Bitter Tears
TTITLE4=Silver Tears
TTITLE5=Ship Song
TTITLE6=Hold On
TTITLE7=Here's To You
TTITLE8=Ballad Of Gordy Quist
TTITLE9=Six Feet Down
TTITLE10=Fade
TTITLE11=Lindsay's Song
EXTD=YEAR: 2004
EXTT0=
EXTT1=
EXTT2=
EXTT3=
EXTT4=
EXTT5=
EXTT6=
EXTT7=
EXTT8=
EXTT9=
EXTT10=
EXTT11=
PLAYORDER=
